<svg xmlns="http://www.w3.org/2000/svg" width="512" height="512" enable-background="new 0 0 512 512" viewBox="0 0 512 512" id="success">
  <path fill="#FB0" d="M221.803,199.447v-86.153v-7.832h152.053l-46.993,46.993l46.993,46.993H237.468v36.392l84.134,104.326
		c52.147-25.424,88.172-78.795,88.172-140.717c0-86.505-70.137-156.642-156.642-156.642S96.49,112.942,96.49,199.447
		c0,51.168,24.644,96.463,62.588,125.045l62.726-88.378V199.447z M370.613,262.104h-23.496V285.6h-15.664v-23.496h-23.497v-15.664
		h23.497v-23.497h15.664v23.497h23.496V262.104z M166.979,191.615h-15.664v-23.497h-23.496v-15.664h23.496v-23.496h15.664v23.496
		h23.497v15.664h-23.497V191.615z"></path>
  <path fill="#FB0" d="M76.458 263.756c3.725 10.241 8.39 20.237 13.867 29.699l13.561-7.848c-5.017-8.674-9.293-17.829-12.711-27.206-3.419-9.392-6.027-19.159-7.756-29.011-1.721-9.828-2.593-19.901-2.593-29.944s.872-20.116 2.593-29.937c1.729-9.859 4.337-19.626 7.756-29.019 3.418-9.377 7.694-18.532 12.711-27.206 4.995-8.643 10.8-16.919 17.248-24.59 6.44-7.664 13.584-14.807 21.248-21.248 7.672-6.448 15.947-12.253 24.59-17.255 8.696-5.025 17.852-9.301 27.213-12.712l-5.354-14.716c-10.226 3.717-20.215 8.383-29.699 13.867-9.431 5.461-18.463 11.794-26.831 18.823-8.352 7.021-16.139 14.815-23.16 23.16-7.029 8.375-13.362 17.4-18.815 26.823-5.477 9.461-10.142 19.458-13.875 29.699-3.725 10.249-6.578 20.904-8.459 31.673-1.874 10.708-2.83 21.691-2.83 32.636 0 10.945.956 21.928 2.83 32.644C69.873 242.852 72.726 253.506 76.458 263.756zM422.845 177.335c1.722 9.851 2.593 19.924 2.593 29.944s-.871 20.093-2.593 29.937c-1.735 9.897-4.344 19.657-7.748 29.018-3.411 9.354-7.687 18.51-12.719 27.206-4.987 8.643-10.792 16.911-17.248 24.59-6.439 7.656-13.591 14.808-21.247 21.248l10.08 11.993c8.345-7.021 16.139-14.815 23.16-23.16 7.037-8.375 13.37-17.4 18.823-26.831 5.483-9.492 10.149-19.48 13.866-29.691 3.718-10.219 6.57-20.865 8.468-31.673 1.873-10.731 2.822-21.714 2.822-32.636 0-10.922-.949-21.905-2.822-32.644-1.897-10.8-4.75-21.446-8.468-31.665-3.717-10.21-8.383-20.2-13.866-29.691l-13.568 7.832c5.032 8.704 9.308 17.859 12.719 27.213C418.501 157.686 421.109 167.445 422.845 177.335z"></path>
  <polygon fill="#FFF" points="190.475 152.454 166.979 152.454 166.979 128.958 151.314 128.958 151.314 152.454 127.818 152.454 127.818 168.118 151.314 168.118 151.314 191.615 166.979 191.615 166.979 168.118 190.475 168.118"></polygon>
  <polygon fill="#FFF" points="347.117 222.943 331.453 222.943 331.453 246.439 307.956 246.439 307.956 262.104 331.453 262.104 331.453 285.6 347.117 285.6 347.117 262.104 370.613 262.104 370.613 246.439 347.117 246.439"></polygon>
  <polygon fill="#24C9B3" points="372.449 428.169 230.033 251.579 129.723 392.924 194.238 473.57 213.971 473.57 213.971 371.753 229.636 371.753 229.636 473.57 268.796 473.57 268.796 410.913 284.46 410.913 284.46 473.57 335.56 473.57"></polygon>
  <path fill="#E85D3A" d="M304.714,152.454l31.328-31.328h-98.574v62.657h98.574L304.714,152.454z M268.796,168.118h-15.664V136.79
		h15.664V168.118z"></path>
  <polygon fill="#FB0" points="97.063 377.176 32.808 473.57 72.497 473.57 88.658 473.57 88.658 426.577 104.322 426.577 104.322 473.57 174.184 473.57"></polygon>
  <polygon fill="#43C2E8" points="409.773 442.242 425.438 442.242 425.438 473.57 475.559 473.57 415.647 399.838 355.737 473.57 409.063 473.57 409.773 473.57"></polygon>
  <path d="M415.647,374.996l-33.103,40.743l-60.943-75.575l-84.134-104.326v-36.392h136.389l-46.993-46.993l46.993-46.993H221.803
		v7.832v86.153v36.667l-62.726,88.378l-39.527,55.712l-23.634-29.538L3.537,489.234H42.17h164.604h116.059h118.98h66.649
		L415.647,374.996z M409.063,473.57h-53.325l59.91-73.732l59.911,73.732h-50.121h-15.664H409.063z M268.796,473.57h-39.16h-15.665
		h-19.733l-64.516-80.646l100.311-141.345l142.416,176.59l-36.89,45.401h-51.1H268.796z M104.322,473.57H88.658H72.497H32.808
		l64.255-96.395l77.12,96.395H104.322z M237.468,121.126h98.574l-31.328,31.328l31.328,31.329h-98.574V121.126z"></path>
  <rect width="15.664" height="31.328" x="253.132" y="136.79" fill="#FFAE7E"></rect>
  <rect width="15.665" height="101.817" x="213.971" y="371.753" fill="#69F5E2"></rect>
  <rect width="15.664" height="46.993" x="88.658" y="426.577" fill="#FFFB1A"></rect>
  <rect width="15.664" height="31.328" x="409.773" y="442.242" fill="#97EEFF"></rect>
  <rect width="15.664" height="62.657" x="268.796" y="410.913" fill="#69F5E2"></rect>
</svg>
